<?xml version="1.0" encoding="UTF-8" standalone="no"?>
<!DOCTYPE svg PUBLIC "-//W3C//DTD SVG 1.1//EN" "http://www.w3.org/Graphics/SVG/1.1/DTD/svg11.dtd">
<svg width="100%" height="100%" viewBox="0 0 3200 3200" version="1.1" xmlns="http://www.w3.org/2000/svg" xmlns:xlink="http://www.w3.org/1999/xlink" xml:space="preserve" xmlns:serif="http://www.serif.com/" style="fill-rule:evenodd;clip-rule:evenodd;stroke-linecap:round;stroke-linejoin:round;stroke-miterlimit:1.5;">
    <g transform="matrix(1.33475,0,0,1.33475,-715.126,33.6695)">
        <rect x="559" y="954" width="2351" height="439" style="fill:rgb(0,83,71);fill-opacity:0.47;stroke:black;stroke-width:9.37px;"/>
        <g transform="matrix(1.01278,0,0,1.30681,-21.0479,820.672)">
            <rect x="1021" y="151" width="626" height="170" style="fill:rgb(0,26,200);stroke:black;stroke-opacity:0.69;stroke-width:5.34px;"/>
        </g>
        <g transform="matrix(1,0,0,1,-2,438)">
            <rect x="801" y="854" width="75" height="38" style="fill:rgb(92,0,103);stroke:black;stroke-opacity:0.69;stroke-width:1.56px;"/>
        </g>
        <g transform="matrix(0.586667,0,0,1.15789,1848.08,19.1579)">
            <rect x="801" y="854" width="75" height="38" style="fill:white;stroke:black;stroke-opacity:0.69;stroke-width:0.68px;"/>
        </g>
        <g transform="matrix(0.586667,0,0,1.15789,2025.08,193.315)">
            <rect x="801" y="854" width="75" height="38" style="fill:white;stroke:black;stroke-opacity:0.69;stroke-width:0.68px;"/>
        </g>
        <g transform="matrix(0.586667,0,0,1.15789,1966.08,193.315)">
            <rect x="801" y="854" width="75" height="38" style="fill:white;stroke:black;stroke-opacity:0.69;stroke-width:0.68px;"/>
        </g>
        <g transform="matrix(0.586667,0,0,1.15789,1907.08,193.315)">
            <rect x="801" y="854" width="75" height="38" style="fill:white;stroke:black;stroke-opacity:0.69;stroke-width:0.68px;"/>
        </g>
        <g transform="matrix(0.586667,0,0,1.15789,1848.08,193.315)">
            <rect x="801" y="854" width="75" height="38" style="fill:white;stroke:black;stroke-opacity:0.69;stroke-width:0.68px;"/>
        </g>
        <g transform="matrix(0.586667,0,0,1.15789,2025.08,135.658)">
            <rect x="801" y="854" width="75" height="38" style="fill:white;stroke:black;stroke-opacity:0.69;stroke-width:0.68px;"/>
        </g>
        <g transform="matrix(0.586667,0,0,1.15789,1966.08,135.658)">
            <rect x="801" y="854" width="75" height="38" style="fill:white;stroke:black;stroke-opacity:0.69;stroke-width:0.68px;"/>
        </g>
        <g transform="matrix(0.586667,0,0,1.15789,1907.08,135.658)">
            <rect x="801" y="854" width="75" height="38" style="fill:white;stroke:black;stroke-opacity:0.69;stroke-width:0.68px;"/>
        </g>
        <g transform="matrix(0.586667,0,0,1.15789,1848.08,135.658)">
            <rect x="801" y="854" width="75" height="38" style="fill:white;stroke:black;stroke-opacity:0.69;stroke-width:0.68px;"/>
        </g>
        <g transform="matrix(0.586667,0,0,1.15789,2025.08,77.1579)">
            <rect x="801" y="854" width="75" height="38" style="fill:white;stroke:black;stroke-opacity:0.69;stroke-width:0.68px;"/>
        </g>
        <g transform="matrix(0.586667,0,0,1.15789,1966.08,77.1579)">
            <rect x="801" y="854" width="75" height="38" style="fill:white;stroke:black;stroke-opacity:0.69;stroke-width:0.68px;"/>
        </g>
        <g transform="matrix(0.586667,0,0,1.15789,1907.08,77.1579)">
            <rect x="801" y="854" width="75" height="38" style="fill:white;stroke:black;stroke-opacity:0.69;stroke-width:0.68px;"/>
        </g>
        <g transform="matrix(0.586667,0,0,1.15789,1848.08,77.1579)">
            <rect x="801" y="854" width="75" height="38" style="fill:white;stroke:black;stroke-opacity:0.69;stroke-width:0.68px;"/>
        </g>
        <g transform="matrix(0.586667,0,0,1.15789,2025.08,19.1579)">
            <rect x="801" y="854" width="75" height="38" style="fill:white;stroke:black;stroke-opacity:0.69;stroke-width:0.68px;"/>
        </g>
        <g transform="matrix(0.586667,0,0,1.15789,1966.08,19.1579)">
            <rect x="801" y="854" width="75" height="38" style="fill:white;stroke:black;stroke-opacity:0.69;stroke-width:0.68px;"/>
        </g>
        <g transform="matrix(0.586667,0,0,1.15789,1907.08,19.1579)">
            <rect x="801" y="854" width="75" height="38" style="fill:white;stroke:black;stroke-opacity:0.69;stroke-width:0.68px;"/>
        </g>
        <g transform="matrix(1,0,0,1,915.437,439)">
            <rect x="801" y="854" width="75" height="38" style="fill:rgb(92,0,103);stroke:black;stroke-opacity:0.69;stroke-width:1.56px;"/>
        </g>
        <g transform="matrix(6.12323e-17,-1,1.36842,8.37916e-17,1486.31,2128.5)">
            <rect x="801" y="854" width="75" height="38" style="fill:rgb(46,0,51);stroke:black;stroke-opacity:0.69;stroke-width:1.3px;"/>
        </g>
        <g transform="matrix(1,0,0,1,1003.44,174)">
            <rect x="801" y="854" width="75" height="38" style="fill:rgb(92,0,103);stroke:black;stroke-opacity:0.69;stroke-width:1.56px;"/>
        </g>
        <g transform="matrix(1,0,0,1,1842.44,270.5)">
            <rect x="801" y="854" width="75" height="38" style="fill:rgb(92,0,103);stroke:black;stroke-opacity:0.69;stroke-width:1.56px;"/>
        </g>
        <g transform="matrix(1,0,0,1,1842.44,174)">
            <rect x="801" y="854" width="75" height="38" style="fill:rgb(92,0,103);stroke:black;stroke-opacity:0.69;stroke-width:1.56px;"/>
        </g>
        <g transform="matrix(1,0,0,1,1003.44,281.5)">
            <rect x="801" y="854" width="75" height="38" style="fill:rgb(92,0,103);stroke:black;stroke-opacity:0.69;stroke-width:1.56px;"/>
        </g>
        <g transform="matrix(1,0,0,1,1003.44,336.157)">
            <rect x="801" y="854" width="75" height="38" style="fill:rgb(92,0,103);stroke:black;stroke-opacity:0.69;stroke-width:1.56px;"/>
        </g>
        <g transform="matrix(1,0,0,1,1003.44,419)">
            <rect x="801" y="854" width="75" height="38" style="fill:rgb(92,0,103);stroke:black;stroke-opacity:0.69;stroke-width:1.56px;"/>
        </g>
        <g transform="matrix(1,0,0,1,1092.44,439)">
            <rect x="801" y="854" width="75" height="38" style="fill:rgb(92,0,103);stroke:black;stroke-opacity:0.69;stroke-width:1.56px;"/>
        </g>
        <g transform="matrix(4.53333,0,0,1,-1362.2,426)">
            <rect x="801" y="854" width="75" height="38" style="stroke:black;stroke-opacity:0.69;stroke-width:1.9px;"/>
        </g>
        <g transform="matrix(1,0,0,1,1003.44,228.657)">
            <rect x="801" y="854" width="75" height="38" style="fill:rgb(92,0,103);stroke:black;stroke-opacity:0.69;stroke-width:1.56px;"/>
        </g>
        <g transform="matrix(0.586667,0,0,0.473684,429.08,896.474)">
            <rect x="801" y="854" width="75" height="38" style="fill:rgb(233,241,84);stroke:black;stroke-opacity:0.69;stroke-width:5.85px;"/>
        </g>
        <g transform="matrix(0.586667,0,0,0.473684,1718.08,885.474)">
            <rect x="801" y="854" width="75" height="38" style="fill:rgb(233,241,84);stroke:black;stroke-opacity:0.69;stroke-width:5.85px;"/>
        </g>
        <g transform="matrix(0.586667,0,0,0.473684,488.08,896.474)">
            <rect x="801" y="854" width="75" height="38" style="fill:rgb(246,31,31);stroke:black;stroke-opacity:0.69;stroke-width:5.85px;"/>
        </g>
        <g transform="matrix(1,0,0,1,722,433)">
            <rect x="801" y="854" width="75" height="38" style="fill:rgb(249,135,39);stroke:black;stroke-opacity:0.69;stroke-width:1.56px;"/>
        </g>
        <g transform="matrix(1,0,0,1,566,433)">
            <rect x="801" y="854" width="75" height="38" style="fill:rgb(249,135,39);stroke:black;stroke-opacity:0.69;stroke-width:1.56px;"/>
        </g>
        <g transform="matrix(1,0,0,1,426,433)">
            <rect x="801" y="854" width="75" height="38" style="fill:rgb(249,135,39);stroke:black;stroke-opacity:0.69;stroke-width:1.56px;"/>
        </g>
        <g transform="matrix(1,0,0,1,277,433)">
            <rect x="801" y="854" width="75" height="38" style="fill:rgb(249,135,39);stroke:black;stroke-opacity:0.69;stroke-width:1.87px;"/>
        </g>
        <g transform="matrix(1,0,0,1,-2,351)">
            <rect x="801" y="854" width="75" height="38" style="fill:rgb(92,0,103);stroke:black;stroke-opacity:0.69;stroke-width:1.56px;"/>
        </g>
        <g transform="matrix(0.5,0,0,0.447368,394,631.947)">
            <rect x="801" y="854" width="75" height="38" style="fill:rgb(200,182,0);stroke:black;stroke-opacity:0.69;stroke-width:1.32px;"/>
        </g>
        <g transform="matrix(0.5,0,0,0.447368,440,651.947)">
            <rect x="801" y="854" width="75" height="38" style="fill:rgb(200,182,0);stroke:black;stroke-opacity:0.69;stroke-width:1.32px;"/>
        </g>
        <g transform="matrix(0.5,0,0,0.447368,440,631.947)">
            <rect x="801" y="854" width="75" height="38" style="fill:rgb(200,182,0);stroke:black;stroke-opacity:0.69;stroke-width:1.32px;"/>
        </g>
        <g transform="matrix(0.5,0,0,0.447368,440,692.947)">
            <rect x="801" y="854" width="75" height="38" style="fill:rgb(200,182,0);stroke:black;stroke-opacity:0.69;stroke-width:1.32px;"/>
        </g>
        <g transform="matrix(0.5,0,0,0.447368,440,754.447)">
            <rect x="801" y="854" width="75" height="38" style="fill:rgb(200,182,0);stroke:black;stroke-opacity:0.69;stroke-width:1.32px;"/>
        </g>
        <g transform="matrix(0.5,0,0,0.447368,394,754.447)">
            <rect x="801" y="854" width="75" height="38" style="fill:rgb(200,182,0);stroke:black;stroke-opacity:0.69;stroke-width:1.32px;"/>
        </g>
        <g transform="matrix(0.5,0,0,0.447368,440,733.947)">
            <rect x="801" y="854" width="75" height="38" style="fill:rgb(200,182,0);stroke:black;stroke-opacity:0.69;stroke-width:1.32px;"/>
        </g>
        <g transform="matrix(0.5,0,0,0.447368,440,712.947)">
            <rect x="801" y="854" width="75" height="38" style="fill:rgb(200,182,0);stroke:black;stroke-opacity:0.69;stroke-width:1.32px;"/>
        </g>
        <g transform="matrix(0.5,0,0,0.447368,440,671.947)">
            <rect x="801" y="854" width="75" height="38" style="fill:rgb(200,182,0);stroke:black;stroke-opacity:0.69;stroke-width:1.32px;"/>
        </g>
        <g transform="matrix(0.5,0,0,0.447368,394,733.947)">
            <rect x="801" y="854" width="75" height="38" style="fill:rgb(200,182,0);stroke:black;stroke-opacity:0.69;stroke-width:1.32px;"/>
        </g>
        <g transform="matrix(0.5,0,0,0.447368,394,712.947)">
            <rect x="801" y="854" width="75" height="38" style="fill:rgb(200,182,0);stroke:black;stroke-opacity:0.69;stroke-width:1.32px;"/>
        </g>
        <g transform="matrix(0.5,0,0,0.447368,394,692.947)">
            <rect x="801" y="854" width="75" height="38" style="fill:rgb(200,182,0);stroke:black;stroke-opacity:0.69;stroke-width:1.32px;"/>
        </g>
        <g transform="matrix(0.5,0,0,0.447368,394,671.947)">
            <rect x="801" y="854" width="75" height="38" style="fill:rgb(200,182,0);stroke:black;stroke-opacity:0.69;stroke-width:1.32px;"/>
        </g>
        <g transform="matrix(0.5,0,0,0.447368,394,651.947)">
            <rect x="801" y="854" width="75" height="38" style="fill:rgb(200,182,0);stroke:black;stroke-opacity:0.69;stroke-width:1.32px;"/>
        </g>
        <g transform="matrix(0.995671,0,0,0.978723,6.79221,575.306)">
            <ellipse cx="2146.5" cy="547.5" rx="115.5" ry="117.5" style="stroke:white;stroke-opacity:0.69;stroke-width:9.49px;"/>
        </g>
    </g>
</svg>
